<?xml version="1.0" encoding="UTF-8"?>
<svg id="LOGO" xmlns="http://www.w3.org/2000/svg" viewBox="180 180 1110 440">
  <g fill="currentColor">
    <path d="M1106.52,282.23c-87.34,0-167.12,67.95-167.12,162.68s79.78,162.68,167.12,162.68,167.12-67.95,167.12-162.68-79.09-162.68-167.12-162.68ZM1106.58,569.34c-41.95,0-78.46-46.18-78.46-124.43s36.47-124.57,78.42-124.57,79.07,46.32,79.07,124.57-36.39,124.43-79.03,124.43Z"/>
    <g>
      <path d="M498.55,196.6c6.43,32.19,6.43,65.34,0,97.53-.42,2.08,1.75,3.72,3.62,2.71l95.57-51.48-95.57-51.48c-1.87-1.01-4.04.63-3.62,2.71Z"/>
      <path d="M633.09,603.58h-131.18c-2.65,0-3.61-3.57-1.28-4.8,12.76-6.86,22.54-18.15,27.16-31.64,1.92-4.8,2.97-9.97,2.97-15.32v-154.23c0-14.36-6.63-27.98-17.97-36.85l-15.74-12.32c-1.42-1.11-1.23-3.31.36-4.16l57.68-31.07,45.52-24.49c1.66-.89,3.68.31,3.68,2.2v258.6c0,6.45,1.14,12.67,3.25,18.43,4.71,13.12,14.31,24.1,26.75,30.82,2.38,1.28,1.51,4.85-1.19,4.85Z"/>
    </g>
    <path d="M955.09,289.09l-6.77-.04h-99.77c-2.79,0-3.57,3.75-1.05,4.94,5.85,2.83,10.93,6.45,15.18,10.61,17.6,17.24,21.03,44.35,7.87,68.36l-.14.27c-.37.87-2.97,6.54-6.95,15-12.3,26.24-37.45,79.38-48.06,101.69l-60.63-127.34c-10.56-25.56,1.74-55.42,25.06-68.68,2.33-1.33,1.42-4.85-1.23-4.85h-140.92c-1.88,0-3.15,1.96-2.33,3.7l147.28,309.37c.46.87,1.33,1.46,2.33,1.46h25.06c.96,0,1.83-.55,2.24-1.42,7.18-15.32,16.92-36.08,28.07-59.86,7.22-15.41,15.04-32.05,23.14-49.33,34.57-73.62,74.12-157.89,93.97-200.23.82-1.69-.46-3.66-2.33-3.66Z"/>
    <path d="M193.72,450.25c-.48-17.93-.24-79.28,50.76-126.58,34.96-32.42,76-38.7,91.43-40.91,59.58-8.53,106.07,16.68,123.91,27.51,2.25,1.37,3.61,3.82,3.61,6.45v78.25c0,2.48-3.21,3.43-4.58,1.36-14.59-21.99-30.52-37.75-48.75-47.29-13.97-7.31-29.29-10.97-46.39-10.97-49.24,0-92.62,34.9-92.62,92.87,0,63.57,48.37,105.33,112.57,105.33,31.3,0,61.56-10.91,81.3-33.69,1.63-1.88,4.72-.51,4.4,1.95-8.99,68.44-53.72,104.04-123.71,104.04-91,0-149.34-62.98-151.91-158.31Z"/>
  </g>
</svg>